<?xml version="1.0" encoding="utf-8"?>
<?xml-stylesheet type="text/xsl" href="rss1.xsl"?>
<rss version="2.0" xmlns:atom="http://www.w3.org/2005/Atom" xmlns:content="http://purl.org/rss/1.0/modules/content/" xmlns:dc="http://purl.org/dc/elements/1.1/" xmlns:media="http://search.yahoo.com/mrss/">
<channel>
 <title>Getty</title>
 <link>http://www.gettyimg.com/</link>
 <atom:link href="http://www.gettyimg.com/" rel="self" type="application/rss+xml" />

 
                <item>
                <title><![CDATA[【Cinema Center】MOVIE - Truth.Or.Dare.2017.1080p.HULU.WEB-DL.AAC2.0.H.264-Samuel]]></title>
                <link><![CDATA[https://sharemania.us/threads/truth-or-dare-2017-1080p-hulu-web-dl-aac2-0-h-264-samuel.228649/]]></link>
                <description><![CDATA[<article>
<blockquote class="messageText SelectQuoteContainer ugc baseHtml">
<div style="text-align: center"><b><span style="font-size: 26px">Truth Or Dare</span></b><br>
<img src="https://i.imgur.com/dX4dUaj.jpg" class="bbCodeImage LbImage" alt="[​IMG]" data-url="https://i.imgur.com/dX4dUaj.jpg" style=""><br>
<b><a href="https://i.imgur.com/YxRuuHH.jpg" target="_blank" class="externalLink" rel="nofollow">Alternate Artwork 1</a></b> | <b><a href="https://i.imgur.com/R2eJ3yM.jpg" target="_blank" class="externalLink" rel="nofollow">Alternate Artwork 2</a></b> | <b><a href="https://i.imgur.com/8ePslSr.jpg" target="_blank" class="externalLink" rel="nofollow">Poster</a></b><br>
<br>
<b>Starring:</b> Cassie Scerbo, Brytni Sarpy, Mason Dye • <b>Director:</b> Nick Simon<br>
TV14 • Horror, Supernatural • Movie • 2017 • 1h 26m<br>
<br>
<div class="bbCodeBlock bbCodeQuote">
<aside>
<blockquote class="quoteContainer"><div class="quote"><b><span style="font-size: 15px"><span style="font-family: 'Arial'">Description</span></span></b><br>
Eight friends head to a "Haunted Rental" for Halloween. But when they play Truth or Dare, their lives are taken one by one by an evil spirit who wants to play a more deadly version of the game.</div><div class="quoteExpand">Click to expand...</div></blockquote>
</aside>
</div>
<div class="bbCodeBlock bbCodeQuote">
<aside>
<blockquote class="quoteContainer"><div class="quote"><b><span style="font-size: 15px"><span style="font-family: 'Arial'">More Information</span></span></b><br>
<b>Starring:</b> Cassie Scerbo, Brytni Sarpy, Mason Dye, Harvey Guillen, Alexxis Lemire<br>
<b>Director:</b> Nick Simon<br>
<br>
TV14 • Horror, Supernatural • Movie (2017)</div><div class="quoteExpand">Click to expand...</div></blockquote>
</aside>
</div>
<div class="bbCodeBlock bbCodeQuote">
<aside>
<blockquote class="quoteContainer"><div class="quote"><b><span style="font-size: 15px">Source</span></b><br>
<img src="https://i.imgur.com/4uiLEFv.png" class="bbCodeImage LbImage" alt="[​IMG]" data-url="https://i.imgur.com/4uiLEFv.png" style=""></div><div class="quoteExpand">Click to expand...</div></blockquote>
</aside>
</div>
<div class="bbCodeBlock bbCodeQuote">
<aside>
<blockquote class="quoteContainer"><div class="quote"><b><span style="font-size: 15px">Release Name</span></b><br>
Truth.Or.Dare.2017.1080p.HULU.WEB-DL.AAC2.0.H.264-Samuel</div><div class="quoteExpand">Click to expand...</div></blockquote>
</aside>
</div>
<div class="ToggleTriggerAnchor bbCodeSpoilerContainer">
<button type="button" class="button bbCodeSpoilerButton ToggleTrigger Tooltip JsOnly" data-target="> .SpoilerTarget"><span>Spoiler: <span class="SpoilerTitle">Media Information</span></span></button>
<div class="SpoilerTarget bbCodeSpoilerText">General<br>
Complete name : Truth.Or.Dare.2017.1080p.HULU.WEB-DL.AAC2.0.H.264-Samuel.mkv<br>
Format : Matroska<br>
Format version : Version 4<br>
File size : 3.50 GiB<br>
Duration : 1 h 26 min<br>
Overall bit rate : 5 795 kb/s<br>
Frame rate : 23.976 FPS<br>
Encoded date : 2023-06-25 10:04:57 UTC<br>
Writing application : mkvmerge v72.0.0 ('Minuano (Six-eight)') 64-bit<br>
Writing library : libebml v1.4.4 + libmatroska v1.7.1<br>
<br>
Video<br>
ID : 1<br>
Format : AVC<br>
Format/Info : Advanced Video Codec<br>
Format profile : High@L4<br>
Format settings : CABAC / 4 Ref Frames<br>
Format settings, CABAC : Yes<br>
Format settings, Reference frames : 4 frames<br>
Codec ID : V_MPEG4/ISO/AVC<br>
Duration : 1 h 26 min<br>
Bit rate : 5 729 kb/s<br>
Width : 1 920 pixels<br>
Height : 1 080 pixels<br>
Display aspect ratio : 16:9<br>
Frame rate mode : Constant<br>
Frame rate : 23.976 (24000/1001) FPS<br>
Color space : YUV<br>
Chroma subsampling : 4:2:0<br>
Bit depth : 8 bits<br>
Scan type : Progressive<br>
Bits/(Pixel*Frame) : 0.115<br>
Stream size : 3.46 GiB (99%)<br>
Default : Yes<br>
Forced : No<br>
<br>
Audio<br>
ID : 2<br>
Format : AAC LC SBR<br>
Format/Info : Advanced Audio Codec Low Complexity with Spectral Band Replication<br>
Commercial name : HE-AAC<br>
Format settings : Explicit<br>
Codec ID : A_AAC-2<br>
Duration : 1 h 26 min<br>
Bit rate : 64.0 kb/s<br>
Channel(s) : 2 channels<br>
Channel layout : L R<br>
Sampling rate : 48.0 kHz<br>
Frame rate : 23.438 FPS (2048 SPF)<br>
Compression mode : Lossy<br>
Stream size : 39.5 MiB (1%)<br>
Language : English<br>
Default : Yes<br>
Forced : No<br>
<br>
Text<br>
ID : 3<br>
Format : UTF-8<br>
Codec ID : S_TEXT/UTF8<br>
Codec ID/Info : UTF-8 Plain Text<br>
Duration : 1 h 25 min<br>
Bit rate : 52 b/s<br>
Frame rate : 0.272 FPS<br>
Count of elements : 1398<br>
Stream size : 32.7 KiB (0%)<br>
Language : English<br>
Default : No<br>
Forced : No</div>
</div><br>
<b>Screenshots</b><br>
<img src="https://i.imgur.com/Ah0ydzT.png" class="bbCodeImage LbImage" alt="[​IMG]" data-url="https://i.imgur.com/Ah0ydzT.png" style=""><br>
<br>
<b>Download</b><br>
<div class="bbCodeBlock bbCodeVfcHH HiddenContent">
<div class="attribution type">Hidden Content:</div>
<blockquote>You must reply before you can see the hidden data contained here.</blockquote>
</div></div>
<div class="messageTextEndMarker">&nbsp;</div>
</blockquote>
</article>]]></description>
                <author><![CDATA[Samuel]]></author>
                </item>

                
                <item>
                <title><![CDATA[【Albums (lossy)】M4A - Destiny's Child - Destiny Fulfilled (Deluxe + All Bonus/Unreleased Tracks)]]></title>
                <link><![CDATA[https://sharemania.us/threads/destinys-child-destiny-fulfilled-deluxe-all-bonus-unreleased-tracks.228650/]]></link>
                <description><![CDATA[<article>
<blockquote class="messageText SelectQuoteContainer ugc baseHtml">
<div style="text-align: center"><b><span style="font-size: 22px">Destiny's Child: Destiny Fulfilled (Deluxe)</span><br>
<span style="font-size: 15px">Complete edition including bonus and unreleased songs<br>
<br>
</span></b><br>
<img src="https://i.imgur.com/ugScdge.jpg" class="bbCodeImage LbImage" alt="[​IMG]" data-url="https://i.imgur.com/ugScdge.jpg" style=""> <br>
<div class="ToggleTriggerAnchor bbCodeSpoilerContainer">
<button type="button" class="button bbCodeSpoilerButton ToggleTrigger Tooltip JsOnly" data-target="> .SpoilerTarget"><span>Spoiler: <span class="SpoilerTitle">Tracklist</span></span></button>
<div class="SpoilerTarget bbCodeSpoilerText"><b>CD1</b><br>
1 Lose My Breath<br>
2 Soldier (feat. T.I. &amp; Lil Wayne)<br>
3 Cater 2 U<br>
4 T-Shirt<br>
5 Is She The Reason <br>
6 Girl<br>
7 Bad Habit<br>
8 If<br>
9 Free<br>
10 Through With Love<br>
11 Love<br>
12 Game Over<br>
<br>
<b>CD2</b><br>
1 My Man<br>
2 2 Step<br>
3 Heart<br>
4 What's It Gonna Be<br>
5 Body Rock<br>
6 Feel The Same Way I Do<br>
7 Got's My Own<br>
8 Why You Actin'<br>
9 Twirk<br>
10 Sugar Daddy<br>
11 Let's Do Us<br>
12 Never Enough<br>
13 I Know, Pt. 2<br>
</div>
</div><span style="font-size: 15px"><br>
<div class="bbCodeBlock bbCodeVfcHH HiddenContent">
<div class="attribution type">Hidden Content:</div>
<blockquote>You must reply before you can see the hidden data contained here.</blockquote>
</div></span>​</div>
<div class="messageTextEndMarker">&nbsp;</div>
</blockquote>
</article>]]></description>
                <author><![CDATA[goldlocc]]></author>
                </item>

                </channel></rss>